# xmcd
#
# Track frame offsets: 
#        183
#        6703
#        10673
#        21490
#        30680
#        42370
#        54233
#        63613
#        69030
#        79920
#        86303
#        95820
#        102418
#        116843
#        122640
#        137920
#        143590
#        154275
#        163773
#        176530
#        185018
#        198538
#        207900
#        217878
#        228358
#        237803
#
# Disc length: 3263 seconds
#
# Revision: 3
# Processed by: cddbd v1.5.2PL0 Copyright (c) Steve Scherf et al.
# Submitted via: ExactAudioCopy v0.99pb3
#
DISCID=6f0cbd1a
DTITLE=Herrman Van Veen - Alfred Jodocus Kwak
DYEAR=1900
DGENRE=
TTITLE0=Frühling in Großwasserland
TTITLE1=So fröhlich
TTITLE2=Noch nie
TTITLE3=Alfreds Geburtstag
TTITLE4=Der Schulhof
TTITLE5=Miau
TTITLE6=Stibitzki, die Elster
TTITLE7=Die Eendjes und die Tweetjes
TTITLE8=Kikeriki
TTITLE9=Ein Walzer
TTITLE10=Der Mönch
TTITLE11=Dreh dich nicht um
TTITLE12=Die Peppille
TTITLE13=Wie Kra
TTITLE14=Die siebte Sieben
TTITLE15=K. Rokodil
TTITLE16=Lied für Männer mit Bärten
TTITLE17=In der Falle
TTITLE18=Das Großwasserlandlied
TTITLE19=Sherlock Homes
TTITLE20=Mach`s gut
TTITLE21=Der fliegende Teppich
TTITLE22=Hopsa
TTITLE23=Der Scheich
TTITLE24=Im Zirkus
TTITLE25=Plitscher, Plätscher, Feder
EXTD=
EXTT0=
EXTT1=
EXTT2=
EXTT3=
EXTT4=
EXTT5=
EXTT6=
EXTT7=
EXTT8=
EXTT9=
EXTT10=
EXTT11=
EXTT12=
EXTT13=
EXTT14=
EXTT15=
EXTT16=
EXTT17=
EXTT18=
EXTT19=
EXTT20=
EXTT21=
EXTT22=
EXTT23=
EXTT24=
EXTT25=
PLAYORDER=
